<svg width="50" height="50" viewBox="0 0 50 50" fill="none" xmlns="http://www.w3.org/2000/svg">
<g opacity="0.4">
<g clip-path="url(#clip0_83_160)">
<rect width="50" height="50" rx="8" fill="#435857"/>
<circle cx="25" cy="25" r="12.5" stroke="black"/>
<circle cx="25" cy="25" r="8" fill="black"/>
<path d="M24.071 19.1542C24.4199 18.3452 25.5687 18.35 25.9108 19.162L26.8824 21.4684C27.0314 21.8221 27.3696 22.0593 27.7528 22.0789L30.2411 22.2063C31.1752 22.2541 31.5382 23.4438 30.7899 24.005L28.9916 25.3537C28.6595 25.6027 28.5158 26.031 28.6305 26.43L29.2479 28.5777C29.4981 29.4479 28.5553 30.176 27.7766 29.714L25.5102 28.3695C25.1957 28.1829 24.8043 28.1829 24.4898 28.3695L22.2234 29.714C21.4447 30.176 20.5019 29.4479 20.7521 28.5777L21.3695 26.43C21.4842 26.031 21.3405 25.6027 21.0084 25.3537L19.2085 24.0038C18.4604 23.4428 18.823 22.2534 19.7569 22.2051L22.2029 22.0788C22.5829 22.0592 22.9189 21.8256 23.0696 21.4762L24.071 19.1542Z" fill="#D9D9D9"/>
</g>
</g>
<defs>
<clipPath id="clip0_83_160">
<rect width="50" height="50" rx="8" fill="white"/>
</clipPath>
</defs>
</svg>
